<?xml version="1.0" encoding="UTF-8"?>
<svg version="1.1" xmlns="http://www.w3.org/2000/svg" width="225" height="225">
<path d="M0 0 C74.25 0 148.5 0 225 0 C225 74.25 225 148.5 225 225 C150.75 225 76.5 225 0 225 C0 150.75 0 76.5 0 0 Z " fill="#FDFDFD" transform="translate(0,0)"/>
<path d="M0 0 C1.33846823 -0.00269966 2.67693454 -0.00658601 4.01539612 -0.01159668 C6.81196888 -0.01747168 9.60802827 -0.00899598 12.40454102 0.00976562 C15.9698786 0.03253305 19.53401001 0.01943526 23.09930325 -0.00452423 C25.8610779 -0.0190562 28.62257192 -0.01434241 31.38435555 -0.00401306 C33.33180153 -0.00008709 35.27925889 -0.01213062 37.22666931 -0.02453613 C50.00242318 0.10991779 50.00242318 0.10991779 55.25390625 4.53125 C60.11461078 9.8412105 60.99496451 14.9666518 60.8828125 21.96484375 C60.88522446 22.84221695 60.88763641 23.71959015 60.89012146 24.62355042 C60.88914752 26.46823675 60.87586292 28.31295397 60.85083008 30.1574707 C60.81653519 32.95822009 60.83019156 35.7558047 60.84960938 38.55664062 C60.8427089 40.35938824 60.83303468 42.16212782 60.8203125 43.96484375 C60.8277523 45.20275917 60.8277523 45.20275917 60.83534241 46.46568298 C60.67085179 54.71652192 57.67260568 61.8455593 52.09765625 67.9609375 C42.47112758 76.15980302 31.43822947 75.83146784 19.52148438 75.9362793 C17.69056218 75.95776065 15.85973989 75.99174514 14.02929688 76.03881836 C1.90613794 76.34716445 -8.02830746 76.26549396 -17.6484375 67.87133789 C-23.97307578 61.08182323 -26.36570529 53.98663411 -26.3125 44.84375 C-26.31869858 43.94180908 -26.32489716 43.03986816 -26.33128357 42.1105957 C-26.33834789 40.21469189 -26.33526735 38.31872561 -26.32250977 36.42285156 C-26.30862885 33.53854284 -26.34278223 30.65747381 -26.38085938 27.7734375 C-26.38181063 25.92187421 -26.37995141 24.07030691 -26.375 22.21875 C-26.38825821 21.36643799 -26.40151642 20.51412598 -26.41517639 19.63598633 C-26.32020471 13.46439158 -24.86071805 9.19885947 -20.74609375 4.53125 C-14.51521452 -0.67308196 -7.84036207 -0.04986573 0 0 Z " fill="#F1F1F1" transform="translate(95.74609375,83.46875)"/>
<path d="M0 0 C1.33846823 -0.00269966 2.67693454 -0.00658601 4.01539612 -0.01159668 C6.81196888 -0.01747168 9.60802827 -0.00899598 12.40454102 0.00976562 C15.9698786 0.03253305 19.53401001 0.01943526 23.09930325 -0.00452423 C25.8610779 -0.0190562 28.62257192 -0.01434241 31.38435555 -0.00401306 C33.33180153 -0.00008709 35.27925889 -0.01213062 37.22666931 -0.02453613 C50.00242318 0.10991779 50.00242318 0.10991779 55.25390625 4.53125 C60.11461078 9.8412105 60.99496451 14.9666518 60.8828125 21.96484375 C60.88522446 22.84221695 60.88763641 23.71959015 60.89012146 24.62355042 C60.88914752 26.46823675 60.87586292 28.31295397 60.85083008 30.1574707 C60.81653519 32.95822009 60.83019156 35.7558047 60.84960938 38.55664062 C60.8427089 40.35938824 60.83303468 42.16212782 60.8203125 43.96484375 C60.8277523 45.20275917 60.8277523 45.20275917 60.83534241 46.46568298 C60.67085179 54.71652192 57.67260568 61.8455593 52.09765625 67.9609375 C42.47112758 76.15980302 31.43822947 75.83146784 19.52148438 75.9362793 C17.69056218 75.95776065 15.85973989 75.99174514 14.02929688 76.03881836 C1.90613794 76.34716445 -8.02830746 76.26549396 -17.6484375 67.87133789 C-23.97307578 61.08182323 -26.36570529 53.98663411 -26.3125 44.84375 C-26.31869858 43.94180908 -26.32489716 43.03986816 -26.33128357 42.1105957 C-26.33834789 40.21469189 -26.33526735 38.31872561 -26.32250977 36.42285156 C-26.30862885 33.53854284 -26.34278223 30.65747381 -26.38085938 27.7734375 C-26.38181063 25.92187421 -26.37995141 24.07030691 -26.375 22.21875 C-26.38825821 21.36643799 -26.40151642 20.51412598 -26.41517639 19.63598633 C-26.32020471 13.46439158 -24.86071805 9.19885947 -20.74609375 4.53125 C-14.51521452 -0.67308196 -7.84036207 -0.04986573 0 0 Z M-20.08569336 10.73950195 C-22.38578962 14.60681569 -22.34007495 17.77432073 -22.3125 22.19921875 C-22.31869858 23.03407303 -22.32489716 23.86892731 -22.33128357 24.7290802 C-22.33837195 26.49328449 -22.33522481 28.25755581 -22.32250977 30.02172852 C-22.308724 32.69350733 -22.34262844 35.36172418 -22.38085938 38.03320312 C-22.43008006 48.58051008 -21.97267269 56.85927564 -14.5 64.96875 C-13.77683594 65.484375 -13.05367187 66 -12.30859375 66.53125 C-11.58800781 67.0675 -10.86742188 67.60375 -10.125 68.15625 C-4.56041985 71.37255905 0.57271343 71.84913092 6.8359375 71.8671875 C7.64955246 71.8738443 8.46316742 71.8805011 9.30143738 71.88735962 C11.01677199 71.89744638 12.73214553 71.90217788 14.44750977 71.90185547 C17.04835946 71.90621972 19.6474978 71.94255485 22.24804688 71.98046875 C34.31198323 72.16894174 34.31198323 72.16894174 45.25390625 67.53125 C46.32640625 66.83 47.39890625 66.12875 48.50390625 65.40625 C57.0298969 56.49271432 56.99017879 47.07919627 56.79589844 35.38891602 C56.75372315 32.70710697 56.75486733 30.027791 56.76171875 27.34570312 C56.75123458 25.63019096 56.73830065 23.91469162 56.72265625 22.19921875 C56.72245483 21.40331833 56.72225342 20.60741791 56.7220459 19.78739929 C56.62566663 15.25577427 56.33239196 12.09380159 53.25390625 8.53125 C47.01269248 3.56593498 40.83225282 3.94837552 33.09375 4 C31.83051407 3.9961731 30.56727814 3.99234619 29.26576233 3.98840332 C26.60165949 3.98568729 23.93903665 3.99099446 21.27514648 4.00976562 C17.87325943 4.03257863 14.47263331 4.01940476 11.0707922 3.99547577 C7.80756716 3.97749087 4.54449153 3.9901067 1.28125 4 C0.06549789 3.99190308 -1.15025421 3.98380615 -2.40284729 3.97546387 C-10.37751871 4.06380829 -14.21637529 5.19969376 -20.08569336 10.73950195 Z " fill="#050505" transform="translate(95.74609375,83.46875)"/>
<path d="M0 0 C1.67542976 0.28604898 3.34385343 0.61781233 5 1 C4.35173874 4.50061082 2.85347275 6.98810679 1 10 C0.67 10.99 0.34 11.98 0 13 C0.88945312 13.25910156 1.77890625 13.51820312 2.6953125 13.78515625 C12.14031676 17.25725593 19.08276065 25.47752014 24 34 C25.3878279 37.3861484 26.61162745 40.7562704 27.69921875 44.25 C29.2859272 47.60448274 30.83016527 48.20814258 34 50 C38.0377563 55.2393643 37.78197092 60.64970865 37 67 C35.75048571 70.35126141 33.93856204 72.37429198 30.9375 74.375 C29 75 29 75 26 75 C25.9906543 74.17387207 25.98130859 73.34774414 25.97167969 72.49658203 C25.92723997 69.38362331 25.86543936 66.27159076 25.79248047 63.15917969 C25.75091573 61.16884998 25.72875456 59.17814514 25.70703125 57.1875 C25.37717758 44.12529469 21.74370611 34.79822343 13 25 C2.02546874 15.20658421 -9.5468426 11.43003342 -24.08203125 11.7265625 C-35.74365176 12.54043432 -46.78202546 18.21675821 -54.8125 26.6875 C-63.10129719 37.38687634 -64.904407 46.66388681 -64.875 59.75 C-64.89317389 61.23701405 -64.91399108 62.72399823 -64.9375 64.2109375 C-64.98872394 67.8074618 -65.00447539 71.40306207 -65 75 C-71.703125 74.296875 -71.703125 74.296875 -74.375 71.625 C-77.64549679 66.3418898 -77.62265292 61.05357002 -77 55 C-75.19844356 51.19671419 -74.27779906 49.47546012 -70.3125 48 C-69.1678125 47.505 -69.1678125 47.505 -68 47 C-67.63957799 45.00470376 -67.31098479 43.00359666 -67 41 C-61.3745881 26.29356604 -51.84006487 17.60332615 -38 11 C-26.66686108 6.06460079 -14.49330545 7.16889818 -3 11 C-2.86722656 10.28972656 -2.73445313 9.57945313 -2.59765625 8.84765625 C-2.42105469 7.92855469 -2.24445313 7.00945313 -2.0625 6.0625 C-1.88847656 5.14597656 -1.71445313 4.22945312 -1.53515625 3.28515625 C-1 1 -1 1 0 0 Z " fill="#0C0C0C" transform="translate(133,50)"/>
<path d="M0 0 C2.375 2.1953125 2.375 2.1953125 6.375 8.1953125 C-17.385 8.1953125 -41.145 8.1953125 -65.625 8.1953125 C-59.82733544 -0.50118433 -51.62326091 -6.62585091 -41.359375 -9.421875 C-25.76546411 -11.60502252 -12.83798022 -9.43744379 0 0 Z " fill="#050505" transform="translate(142.625,73.8046875)"/>
<path d="M0 0 C2.76101146 1.82109266 4.52100548 3.04201097 6 6 C6.51816286 10.79937735 6.71207367 14.73409126 4.3125 19 C0.63500444 22.1805367 -1.60614721 23.04978046 -6.5 22.875 C-11.03615995 21.74096001 -13.63218425 19.95402251 -16.3125 16.125 C-17.26385272 13.18445523 -17.36983143 11.08192861 -17 8 C-12.99883549 0.44224481 -8.24284126 -2.49783069 0 0 Z " fill="#202020" transform="translate(138,105)"/>
<path d="M0 0 C2.76101146 1.82109266 4.52100548 3.04201097 6 6 C6.51816286 10.79937735 6.71207367 14.73409126 4.3125 19 C0.63500444 22.1805367 -1.60614721 23.04978046 -6.5 22.875 C-10.38661446 21.90334639 -12.22074092 20.85866648 -15 18 C-17.47601332 13.83579579 -17.15783642 10.63134568 -16 6 C-11.77119601 -0.56193723 -7.59040132 -2.12350513 0 0 Z " fill="#101010" transform="translate(98,105)"/>
<path d="M0 0 C9.24377931 6.34166255 15.06313865 14.40786113 19.1875 24.8125 C19.1875 25.8025 19.1875 26.7925 19.1875 27.8125 C18.1975 27.8125 17.2075 27.8125 16.1875 27.8125 C15.015625 25.2734375 15.015625 25.2734375 13.84375 22.734375 C10.48739203 18.83973321 6.22299132 17.07989485 1.22741699 16.42364502 C-2.28008768 16.25531567 -5.76970424 16.20664012 -9.28125 16.203125 C-11.19532654 16.17832062 -11.19532654 16.17832062 -13.14807129 16.15301514 C-16.51505434 16.11283991 -19.88128536 16.08940192 -23.24841309 16.07427979 C-26.69440882 16.05461342 -30.1401284 16.01265476 -33.5859375 15.97265625 C-40.32805718 15.89887519 -47.07007185 15.84717578 -53.8125 15.8125 C-53.8125 15.4825 -53.8125 15.1525 -53.8125 14.8125 C-53.12647202 14.80219254 -52.44044403 14.79188507 -51.73362732 14.78126526 C-44.57940717 14.67290218 -37.42530541 14.5583293 -30.27124023 14.44018555 C-27.60296812 14.39643674 -24.93469145 14.35525062 -22.26635742 14.31518555 C-18.42619 14.25725045 -14.58615214 14.19362308 -10.74609375 14.12890625 C-8.96288979 14.10383751 -8.96288979 14.10383751 -7.1436615 14.07826233 C-1.61057909 13.9797836 3.73545297 13.78521442 9.1875 12.8125 C3.9976143 5.02767145 -4.51819638 0.11404067 -13.33203125 -2.53125 C-23.17662419 -4.38746954 -34.68950086 -4.78563812 -43.8125 -0.1875 C-44.57820313 0.18761719 -45.34390625 0.56273438 -46.1328125 0.94921875 C-52.13005441 4.08638985 -57.14642111 7.88719451 -61.8125 12.8125 C-62.1425 12.1525 -62.4725 11.4925 -62.8125 10.8125 C-47.65486337 -9.26112689 -21.1482079 -12.50856864 0 0 Z " fill="#CFCFCF" transform="translate(138.8125,68.1875)"/>
<path d="M0 0 C4.35993988 2.96028021 8.33171147 6.21635649 12 10 C11.67 10.66 11.34 11.32 11 12 C10.50371094 11.67386719 10.00742188 11.34773437 9.49609375 11.01171875 C-2.42439374 3.34370118 -14.6999271 0.91623263 -28.7265625 3.75390625 C-34.38625169 5.41278067 -39.44327216 7.2027268 -44 11 C-44.33 11.66 -44.66 12.32 -45 13 C-45.66 12.67 -46.32 12.34 -47 12 C-36.10759679 -1.71762029 -16.60005348 -9.17960568 0 0 Z " fill="#070707" transform="translate(130,165)"/>
<path d="M0 0 C3.83473284 -0.35671933 5.55342875 -0.29771416 8.8125 1.875 C11.90230988 4.87652959 12.19283951 6.61178705 12.3125 10.8125 C12.27134563 14.37749763 12.10085173 15.82070803 10.3125 19 C6.63500444 22.1805367 4.39385279 23.04978046 -0.5 22.875 C-4.30865384 21.92283654 -6.24102393 20.75897607 -9 18 C-9 17.34 -9 16.68 -9 16 C-8.01 15.67 -7.02 15.34 -6 15 C-5.67 14.01 -5.34 13.02 -5 12 C-4.34 12.33 -3.68 12.66 -3 13 C-3 14.33333333 -3 15.66666667 -3 17 C-1.72125 17.061875 -0.4425 17.12375 0.875 17.1875 C1.59429687 17.22230469 2.31359375 17.25710937 3.0546875 17.29296875 C4.01761719 17.14794922 4.01761719 17.14794922 5 17 C7.53418918 13.19871623 7.68690436 11.50303968 7 7 C5.31683921 5.1153636 3.55852645 3.66843034 1.53125 2.1640625 C1.0259375 1.77992187 0.520625 1.39578125 0 1 C0 0.67 0 0.34 0 0 Z " fill="#121212" transform="translate(132,105)"/>
<path d="M0 0 C6.6 0 13.2 0 20 0 C17.53521127 7.3943662 17.53521127 7.3943662 15 9 C8.46982393 10.71283307 8.46982393 10.71283307 5.1796875 9.1171875 C1.41439807 6.22500866 0.95779122 4.78895609 0 0 Z " fill="#040404" transform="translate(103,132)"/>
<path d="M0 0 C4.48304547 3.65285187 6.85385947 8.73140091 9 14 C9 14.99 9 15.98 9 17 C8.01 17 7.02 17 6 17 C5.21875 15.30729167 4.4375 13.61458333 3.65625 11.921875 C0.29989203 8.02723321 -3.96450868 6.26739485 -8.96008301 5.61114502 C-12.46758768 5.44281567 -15.95720424 5.39414012 -19.46875 5.390625 C-21.38282654 5.36582062 -21.38282654 5.36582062 -23.33557129 5.34051514 C-26.70255434 5.30033991 -30.06878536 5.27690192 -33.43591309 5.26177979 C-36.88190882 5.24211342 -40.3276284 5.20015476 -43.7734375 5.16015625 C-50.51555718 5.08637519 -57.25757185 5.03467578 -64 5 C-64 4.67 -64 4.34 -64 4 C-42.88 3.67 -21.76 3.34 0 3 C0 2.01 0 1.02 0 0 Z " fill="#E5E5E5" transform="translate(149,79)"/>
<path d="M0 0 C0.66 0 1.32 0 2 0 C2 0.66 2 1.32 2 2 C23.12 2 44.24 2 66 2 C66 2.33 66 2.66 66 3 C65.32063385 3.00142502 64.6412677 3.00285004 63.9413147 3.00431824 C56.83498372 3.02408916 49.72950317 3.07852174 42.62353516 3.15258789 C39.97581088 3.17570577 37.32799546 3.19014891 34.68017578 3.19555664 C30.86173097 3.20489094 27.04470769 3.24598471 23.2265625 3.29296875 C21.46658432 3.28706978 21.46658432 3.28706978 19.67105103 3.28105164 C12.21369551 3.41179482 6.13792036 4.52972013 0 9 C-1.83423417 11.29689475 -2.82284128 13.27113206 -4 16 C-4.99 16 -5.98 16 -7 16 C-6.67698799 9.86277186 -3.6043679 4.83769272 0 0 Z " fill="#F5F5F5" transform="translate(75,80)"/>
<path d="M0 0 C0.2475 0.598125 0.495 1.19625 0.75 1.8125 C2.27404105 4.47957184 3.26745935 5.56182071 6 7 C8.78043788 7.52633804 11.23287466 7.63507795 14 7 C16.5404226 4.66169042 16.5404226 4.66169042 18 2 C18.66 3.98 19.32 5.96 20 8 C16.52433144 11.36705391 13.73393708 12.77780107 8.99609375 13.171875 C5.57231676 12.87706837 3.54278344 11.17952866 1 9 C-1.14809171 5.77786243 -1.29386153 4.72224599 -1 1 C-0.67 0.67 -0.34 0.34 0 0 Z " fill="#0E0E0E" transform="translate(83,115)"/>
<path d="M0 0 C10.81673606 0.40061985 18.38318173 6.8087023 26 14 C25.67 15.32 25.34 16.64 25 18 C24.54625 17.319375 24.0925 16.63875 23.625 15.9375 C17.92000437 9.55333822 10.9703585 5.5950846 2.93359375 2.82421875 C1 2 1 2 0 0 Z " fill="#DFDFDF" transform="translate(123,63)"/>
<path d="M0 0 C0.33 0.66 0.66 1.32 1 2 C3.02463255 2.65213292 3.02463255 2.65213292 5 3 C6.31003937 8.35925197 6.31003937 8.35925197 5.0625 10.9375 C1.6624011 12.6890661 -1.30019214 11.66717847 -5 11 C-4.360625 10.855625 -3.72125 10.71125 -3.0625 10.5625 C-1.02454854 10.18992819 -1.02454854 10.18992819 0 9 C-1.32 8.67 -2.64 8.34 -4 8 C-3.01 7.34 -2.02 6.68 -1 6 C-0.26656572 2.93443402 -0.26656572 2.93443402 0 0 Z " fill="#141414" transform="translate(92,109)"/>
<path d="M0 0 C-1 3 -1 3 -3.0390625 4.17578125 C-4.31910156 4.73845703 -4.31910156 4.73845703 -5.625 5.3125 C-11.81111605 8.24183392 -16.22819145 12.18545883 -21 17 C-21.33 16.34 -21.66 15.68 -22 15 C-17.0963508 8.50597808 -8.64745222 0 0 0 Z " fill="#DDDDDD" transform="translate(98,64)"/>
<path d="M0 0 C3.83473284 -0.35671933 5.55342875 -0.29771416 8.8125 1.875 C11.11853252 4.11514587 11.95396776 4.97992566 12.09765625 8.1640625 C12.08605469 8.97617188 12.07445312 9.78828125 12.0625 10.625 C12.05347656 11.44226563 12.04445312 12.25953125 12.03515625 13.1015625 C12.02355469 13.72804688 12.01195312 14.35453125 12 15 C9.89775767 13.0425402 8.91254828 11.80843909 7.6875 9.125 C5.62084801 5.29786668 3.40644595 3.64945796 0 1 C0 0.67 0 0.34 0 0 Z " fill="#050505" transform="translate(132,105)"/>
<path d="M0 0 C2.4375 0.625 2.4375 0.625 5 2 C6 4.9375 6 4.9375 6 8 C4.8125 9.875 4.8125 9.875 3 11 C1.68 11 0.36 11 -1 11 C-2.26264601 6.70700357 -1.62950412 4.12168689 0 0 Z " fill="#090909" transform="translate(132,110)"/>
<path d="M0 0 C3.65316671 1.24976756 4.78065836 1.67098753 7 5 C7.34386442 8.23232558 7.26498755 10.37065456 6 13.375 C2.82368122 15.95575901 0.00554268 15.26265854 -4 15 C-4 14.01 -4 13.02 -4 12 C-1.36 12 1.28 12 4 12 C4 9.36 4 6.72 4 4 C2.68 3.67 1.36 3.34 0 3 C0 2.01 0 1.02 0 0 Z " fill="#E1E1E1" transform="translate(93,108)"/>
<path d="M0 0 C4.75 0.75 4.75 0.75 7 3 C7.32683936 6.52986508 7.35374004 9.13775866 6 12.4375 C2.81039012 14.92938272 -0.03456915 14.26002825 -4 14 C-4.33 13.34 -4.66 12.68 -5 12 C-0.545 11.505 -0.545 11.505 4 11 C4.20970559 6.85906302 4.20970559 6.85906302 3 3 C2.01 2.67 1.02 2.34 0 2 C0 1.34 0 0.68 0 0 Z " fill="#DEDEDE" transform="translate(133,109)"/>
<path d="M0 0 C2 1.625 2 1.625 3 4 C2.6875 7.25 2.6875 7.25 2 10 C1.67 10 1.34 10 1 10 C0.34 8.02 -0.32 6.04 -1 4 C-3.3015411 3.22197813 -3.3015411 3.22197813 -6 3 C-8.30504044 4.33153266 -8.30504044 4.33153266 -10 6 C-9.625 3.5625 -9.625 3.5625 -9 1 C-5.9167365 -0.54163175 -3.39121901 -0.29747535 0 0 Z " fill="#1D1D1D" transform="translate(139,45)"/>
<path d="M0 0 C0.33 0 0.66 0 1 0 C1 5.61 1 11.22 1 17 C1.66 17 2.32 17 3 17 C3 17.99 3 18.98 3 20 C2.34 20 1.68 20 1 20 C1 23.3 1 26.6 1 30 C0.67 30 0.34 30 0 30 C0 20.1 0 10.2 0 0 Z " fill="#1E1E1E" transform="translate(152,101)"/>
<path d="M0 0 C2.125 0.375 2.125 0.375 4 1 C4.5625 2.9375 4.5625 2.9375 5 5 C4 6 4 6 1.4375 6.0625 C0.2309375 6.0315625 0.2309375 6.0315625 -1 6 C-1.625 4.125 -1.625 4.125 -2 2 C-1.34 1.34 -0.68 0.68 0 0 Z " fill="#E9E9E9" transform="translate(87,110)"/>
<path d="M0 0 C2.125 0.375 2.125 0.375 4 1 C4.5625 2.9375 4.5625 2.9375 5 5 C4 6 4 6 1.4375 6.0625 C0.2309375 6.0315625 0.2309375 6.0315625 -1 6 C-1.625 4.125 -1.625 4.125 -2 2 C-1.34 1.34 -0.68 0.68 0 0 Z " fill="#E9E9E9" transform="translate(127,110)"/>
<path d="M0 0 C1.5625 1.125 1.5625 1.125 3 3 C2.6875 6.1875 2.6875 6.1875 2 9 C1.01 9 0.02 9 -1 9 C-1.09765625 2.84765625 -1.09765625 2.84765625 -1 1 C-0.67 0.67 -0.34 0.34 0 0 Z " fill="#151515" transform="translate(135,111)"/>
<path d="M0 0 C1.65 0 3.3 0 5 0 C4.34 0.66 3.68 1.32 3 2 C3.99 3.485 3.99 3.485 5 5 C3.68 5.99 2.36 6.98 1 8 C-0.42944945 5.64561267 -1.08661261 4.51967567 -0.625 1.75 C-0.41875 1.1725 -0.2125 0.595 0 0 Z " fill="#393939" transform="translate(130,104)"/>
<path d="M0 0 C1.32 0.66 2.64 1.32 4 2 C4 2.99 4 3.98 4 5 C2.35 5.33 0.7 5.66 -1 6 C-1.625 4.125 -1.625 4.125 -2 2 C-1.34 1.34 -0.68 0.68 0 0 Z " fill="#191919" transform="translate(47,104)"/>
<path d="M0 0 C6.22303473 3.53199269 6.22303473 3.53199269 8 6 C7.6875 8.1875 7.6875 8.1875 7 10 C6.401875 9.21625 5.80375 8.4325 5.1875 7.625 C3.08914751 4.85425677 3.08914751 4.85425677 0 3 C0 2.01 0 1.02 0 0 Z " fill="#D5D5D5" transform="translate(141,71)"/>
<path d="M0 0 C2.875 0.25 2.875 0.25 6 1 C7.375 3.0625 7.375 3.0625 8 5 C5.125 5.625 5.125 5.625 2 6 C1.34 5.34 0.68 4.68 0 4 C0 2.68 0 1.36 0 0 Z " fill="#242424" transform="translate(84,115)"/>
<path d="M0 0 C4.75 0.75 4.75 0.75 7 3 C7.125 6.125 7.125 6.125 7 9 C6.34 9 5.68 9 5 9 C4.731875 8.030625 4.46375 7.06125 4.1875 6.0625 C3.795625 5.051875 3.40375 4.04125 3 3 C2.01 2.67 1.02 2.34 0 2 C0 1.34 0 0.68 0 0 Z " fill="#E4E4E4" transform="translate(133,109)"/>
<path d="M0 0 C1.125 3.75 1.125 3.75 0 6 C0.66 6.33 1.32 6.66 2 7 C-0.64 6.67 -3.28 6.34 -6 6 C-5.360625 5.855625 -4.72125 5.71125 -4.0625 5.5625 C-2.02454854 5.18992819 -2.02454854 5.18992819 -1 4 C-2.32 3.67 -3.64 3.34 -5 3 C-3.35 2.01 -1.7 1.02 0 0 Z " fill="#080808" transform="translate(93,114)"/>
<path d="M0 0 C2.0625 0.4375 2.0625 0.4375 4 1 C3.67 1.66 3.34 2.32 3 3 C2.01 3.33 1.02 3.66 0 4 C-0.99 5.485 -0.99 5.485 -2 7 C-2.66 7 -3.32 7 -4 7 C-4.33 5.68 -4.66 4.36 -5 3 C-4.360625 2.690625 -3.72125 2.38125 -3.0625 2.0625 C-1.06389179 1.1654837 -1.06389179 1.1654837 0 0 Z " fill="#C7C7C7" transform="translate(133,47)"/>
<path d="M0 0 C0.66 0.33 1.32 0.66 2 1 C0.74381926 4.76854223 -0.66014706 5.07958456 -4 7 C-4.33 7.66 -4.66 8.32 -5 9 C-5.66 8.67 -6.32 8.34 -7 8 C-4.69 5.36 -2.38 2.72 0 0 Z " fill="#282828" transform="translate(90,169)"/>
<path d="M0 0 C1.98 0.495 1.98 0.495 4 1 C3.67 2.32 3.34 3.64 3 5 C1.68 4.67 0.36 4.34 -1 4 C-0.67 2.68 -0.34 1.36 0 0 Z " fill="#0F0F0F" transform="translate(176,117)"/>
<path d="M0 0 C2 2 2 2 2.125 5.125 C2.08375 6.07375 2.0425 7.0225 2 8 C1.01 7.67 0.02 7.34 -1 7 C-1.33 5.35 -1.66 3.7 -2 2 C-1.34 2 -0.68 2 0 2 C0 1.34 0 0.68 0 0 Z " fill="#171717" transform="translate(102,113)"/>
<path d="M0 0 C4.67692308 1.47692308 4.67692308 1.47692308 6.3125 4.125 C6.539375 4.74375 6.76625 5.3625 7 6 C6.01 6 5.02 6 4 6 C4 5.34 4 4.68 4 4 C2.68 3.67 1.36 3.34 0 3 C0 2.01 0 1.02 0 0 Z " fill="#D0D0D0" transform="translate(93,108)"/>
<path d="M0 0 C0.144375 0.598125 0.28875 1.19625 0.4375 1.8125 C0.8872439 3.56150404 1.42892341 5.28677023 2 7 C1.34 7.66 0.68 8.32 0 9 C-1.3950848 6.70221327 -2.07438619 5.5207033 -1.6875 2.8125 C-1 1 -1 1 0 0 Z " fill="#131313" transform="translate(72,112)"/>
<path d="M0 0 C4.875 0.875 4.875 0.875 6 2 C6.04080783 3.99958364 6.04254356 6.00045254 6 8 C5.34 7.01 4.68 6.02 4 5 C2.67618483 3.32576317 1.34423339 1.65788785 0 0 Z " fill="#E5E5E5" transform="translate(134,48)"/>
</svg>
